# Made in Blockbench 5.1.5
mtllib SM_蘑菇_01.mtl

o cube
v -0.06859043763665065 0.125 0.2095926681925766
v 0.027165117753221613 0.125 0.1292442169817592
v -0.06859043763665065 0.0625 0.2095926681925766
v 0.027165117753221613 0.0625 0.1292442169817592
v -0.05318333345759581 0.125 0.033488661591886945
v -0.14893888884746806 0.125 0.11383711280270435
v -0.05318333345759581 0.0625 0.033488661591886945
v -0.14893888884746806 0.0625 0.11383711280270435
vt 0 0.625
vt 0.125 0.625
vt 0.125 0.5625
vt 0 0.5625
vt 0.375 1
vt 0.5 1
vt 0.5 0.9375
vt 0.375 0.9375
vt 0.375 0.875
vt 0.5 0.875
vt 0.5 0.8125
vt 0.375 0.8125
vt 0.1875 0.625
vt 0.3125 0.625
vt 0.3125 0.5625
vt 0.1875 0.5625
vt 0.125 0.875
vt 0 0.875
vt 0 1
vt 0.125 1
vt 0.125 0.8125
vt 0 0.8125
vt 0 0.6875
vt 0.125 0.6875
vn 0.766044443118978 0 -0.6427876096865393
vn 0.6427876096865393 0 0.766044443118978
vn -0.766044443118978 0 0.6427876096865393
vn -0.6427876096865393 0 -0.766044443118978
vn 0 1 0
vn 0 -1 0
usemtl m_6f979936-7853-eb5f-3db9-77b06f9717a4
f 4/4/1 7/3/1 5/2/1 2/1/1
f 3/8/2 4/7/2 2/6/2 1/5/2
f 8/12/3 3/11/3 1/10/3 6/9/3
f 7/16/4 8/15/4 6/14/4 5/13/4
f 6/20/5 1/19/5 2/18/5 5/17/5
f 7/24/6 4/23/6 3/22/6 8/21/6
o cube
v -0.06018488425357582 0.0625 0.15154709920945542
v -0.02667043986712052 0.0625 0.12342514128566934
v -0.06018488425357582 3.469446951953614e-18 0.15154709920945542
v -0.02667043986712052 3.469446951953614e-18 0.12342514128566934
v -0.05479239779090661 0.0625 0.08991069689921405
v -0.0883068421773619 0.0625 0.11803265482300015
v -0.05479239779090661 3.469446951953614e-18 0.08991069689921405
v -0.0883068421773619 3.469446951953614e-18 0.11803265482300015
vt 0.375 0.5
vt 0.4375 0.5
vt 0.4375 0.4375
vt 0.375 0.4375
vt 0.5 0.5
vt 0.5625 0.5
vt 0.5625 0.4375
vt 0.5 0.4375
vt 0.5625 1
vt 0.625 1
vt 0.625 0.9375
vt 0.5625 0.9375
vt 0.5625 0.875
vt 0.625 0.875
vt 0.625 0.8125
vt 0.5625 0.8125
vt 0.625 0.6875
vt 0.5625 0.6875
vt 0.5625 0.75
vt 0.625 0.75
vt 0.625 0.625
vt 0.5625 0.625
vt 0.5625 0.5625
vt 0.625 0.5625
vn 0.766044443118978 0 -0.6427876096865393
vn 0.6427876096865393 0 0.766044443118978
vn -0.766044443118978 0 0.6427876096865393
vn -0.6427876096865393 0 -0.766044443118978
vn 0 1 0
vn 0 -1 0
usemtl m_6f979936-7853-eb5f-3db9-77b06f9717a4
f 12/28/7 15/27/7 13/26/7 10/25/7
f 11/32/8 12/31/8 10/30/8 9/29/8
f 16/36/9 11/35/9 9/34/9 14/33/9
f 15/40/10 16/39/10 14/38/10 13/37/10
f 14/44/11 9/43/11 10/42/11 13/41/11
f 15/48/12 12/47/12 11/46/12 16/45/12
o cube
v -0.13453107502959916 0.125 0.0074415969776799665
v -0.11282505282123287 0.125 -0.11565937214884604
v -0.13453107502959916 0.0625 0.0074415969776799665
v -0.11282505282123287 0.0625 -0.11565937214884604
v -0.23592602194775888 0.125 -0.13736539435721234
v -0.2576320441561252 0.125 -0.014264425230686342
v -0.23592602194775888 0.0625 -0.13736539435721234
v -0.2576320441561252 0.0625 -0.014264425230686342
vt 0.375 0.75
vt 0.5 0.75
vt 0.5 0.6875
vt 0.375 0.6875
vt 0.375 0.625
vt 0.5 0.625
vt 0.5 0.5625
vt 0.375 0.5625
vt 0 0.5
vt 0.125 0.5
vt 0.125 0.4375
vt 0 0.4375
vt 0.1875 0.5
vt 0.3125 0.5
vt 0.3125 0.4375
vt 0.1875 0.4375
vt 0.3125 0.875
vt 0.1875 0.875
vt 0.1875 1
vt 0.3125 1
vt 0.3125 0.8125
vt 0.1875 0.8125
vt 0.1875 0.6875
vt 0.3125 0.6875
vn 0.17364817766693047 0 -0.9848077530122081
vn 0.9848077530122081 0 0.17364817766693047
vn -0.17364817766693047 0 0.9848077530122081
vn -0.9848077530122081 0 -0.17364817766693047
vn 0 1 0
vn 0 -1 0
usemtl m_6f979936-7853-eb5f-3db9-77b06f9717a4
f 20/52/13 23/51/13 21/50/13 18/49/13
f 19/56/14 20/55/14 18/54/14 17/53/14
f 24/60/15 19/59/15 17/58/15 22/57/15
f 23/64/16 24/63/16 22/62/16 21/61/16
f 22/68/17 17/67/17 18/66/17 21/65/17
f 23/72/18 20/71/18 19/70/18 24/69/18
o cube
v -0.16540302010871033 0.0625 -0.04242687415671859
v -0.15780591233578214 0.0625 -0.0855122133510027
v -0.16540302010871033 3.469446951953614e-18 -0.04242687415671859
v -0.15780591233578214 3.469446951953614e-18 -0.0855122133510027
v -0.20089125153006626 0.0625 -0.09310932112393092
v -0.20848835930299447 0.0625 -0.050023981929646806
v -0.20089125153006626 3.469446951953614e-18 -0.09310932112393092
v -0.20848835930299447 3.469446951953614e-18 -0.050023981929646806
vt 0 0.375
vt 0.0625 0.375
vt 0.0625 0.3125
vt 0 0.3125
vt 0.125 0.375
vt 0.1875 0.375
vt 0.1875 0.3125
vt 0.125 0.3125
vt 0.25 0.375
vt 0.3125 0.375
vt 0.3125 0.3125
vt 0.25 0.3125
vt 0.375 0.375
vt 0.4375 0.375
vt 0.4375 0.3125
vt 0.375 0.3125
vt 0.5625 0.3125
vt 0.5 0.3125
vt 0.5 0.375
vt 0.5625 0.375
vt 0.6875 0.5
vt 0.625 0.5
vt 0.625 0.4375
vt 0.6875 0.4375
vn 0.17364817766693047 0 -0.9848077530122081
vn 0.9848077530122081 0 0.17364817766693047
vn -0.17364817766693047 0 0.9848077530122081
vn -0.9848077530122081 0 -0.17364817766693047
vn 0 1 0
vn 0 -1 0
usemtl m_6f979936-7853-eb5f-3db9-77b06f9717a4
f 28/76/19 31/75/19 29/74/19 26/73/19
f 27/80/20 28/79/20 26/78/20 25/77/20
f 32/84/21 27/83/21 25/82/21 30/81/21
f 31/88/22 32/87/22 30/86/22 29/85/22
f 30/92/23 25/91/23 26/90/23 29/89/23
f 31/96/24 28/95/24 27/94/24 32/93/24
o cube
v 0.07974645282773177 0.0875 -0.11566841136006861
v 0.0949406683735882 0.0875 -0.20183908974863685
v 0.07974645282773177 0.04374999999999999 -0.11566841136006861
v 0.0949406683735882 0.04374999999999999 -0.20183908974863685
v 0.008769989985019993 0.0875 -0.21703330529449327
v -0.006424225560836426 0.0875 -0.13086262690592504
v 0.008769989985019993 0.04374999999999999 -0.21703330529449327
v -0.006424225560836426 0.04374999999999999 -0.13086262690592504
vt 0.625 0.375
vt 0.6875 0.375
vt 0.6875 0.3125
vt 0.625 0.3125
vt 0.6875 1
vt 0.75 1
vt 0.75 0.9375
vt 0.6875 0.9375
vt 0.6875 0.875
vt 0.75 0.875
vt 0.75 0.8125
vt 0.6875 0.8125
vt 0.6875 0.75
vt 0.75 0.75
vt 0.75 0.6875
vt 0.6875 0.6875
vt 0.75 0.5625
vt 0.6875 0.5625
vt 0.6875 0.625
vt 0.75 0.625
vt 0.0625 0.25
vt 0 0.25
vt 0 0.1875
vt 0.0625 0.1875
vn 0.17364817766693047 0 -0.9848077530122081
vn 0.9848077530122081 0 0.17364817766693047
vn -0.17364817766693047 0 0.9848077530122081
vn -0.9848077530122081 0 -0.17364817766693047
vn 0 1 0
vn 0 -1 0
usemtl m_6f979936-7853-eb5f-3db9-77b06f9717a4
f 36/100/25 39/99/25 37/98/25 34/97/25
f 35/104/26 36/103/26 34/102/26 33/101/26
f 40/108/27 35/107/27 33/106/27 38/105/27
f 39/112/28 40/111/28 38/110/28 37/109/28
f 38/116/29 33/115/29 34/114/29 37/113/29
f 39/120/30 36/119/30 35/118/30 40/117/30
o cube
v 0.05813609127235397 0.04375 -0.1505763411541476
v 0.06345406671340371 0.04375 -0.1807360785901465
v 0.05813609127235397 0 -0.1505763411541476
v 0.06345406671340371 0 -0.1807360785901465
v 0.03329432927740484 0.04375 -0.18605405403119626
v 0.027976353836355092 0.04375 -0.15589431659519737
v 0.03329432927740484 0 -0.18605405403119626
v 0.027976353836355092 0 -0.15589431659519737
vt 0.125 0.25
vt 0.1875 0.25
vt 0.1875 0.1875
vt 0.125 0.1875
vt 0.25 0.25
vt 0.3125 0.25
vt 0.3125 0.1875
vt 0.25 0.1875
vt 0.375 0.25
vt 0.4375 0.25
vt 0.4375 0.1875
vt 0.375 0.1875
vt 0.5 0.25
vt 0.5625 0.25
vt 0.5625 0.1875
vt 0.5 0.1875
vt 0.8125 0.4375
vt 0.75 0.4375
vt 0.75 0.5
vt 0.8125 0.5
vt 0.6875 0.25
vt 0.625 0.25
vt 0.625 0.1875
vt 0.6875 0.1875
vn 0.17364817766693047 0 -0.9848077530122081
vn 0.9848077530122081 0 0.17364817766693047
vn -0.17364817766693047 0 0.9848077530122081
vn -0.9848077530122081 0 -0.17364817766693047
vn 0 1 0
vn 0 -1 0
usemtl m_6f979936-7853-eb5f-3db9-77b06f9717a4
f 44/124/31 47/123/31 45/122/31 42/121/31
f 43/128/32 44/127/32 42/126/32 41/125/32
f 48/132/33 43/131/33 41/130/33 46/129/33
f 47/136/34 48/135/34 46/134/34 45/133/34
f 46/140/35 41/139/35 42/138/35 45/137/35
f 47/144/36 44/143/36 43/142/36 48/141/36